<svg xmlns="http://www.w3.org/2000/svg" viewBox="0 0 153 139.1" xml:space="preserve"><path d="M153.027 55.7c0-8.8-4.7-16.9-12.4-21.7-4.1-16.7-19.8-28.5-38.2-28.5-4.4 0-8.8.7-12.9 2-5.1-4.8-12-7.6-19.4-7.6-8.5 0-16.6 3.8-21.8 10.1-1.1-.1-2.3-.2-3.5-.2-12.5 0-23.2 7.8-26.5 18.9-11 3.6-18.4 13.3-18.4 24.5 0 3.3.7 6.6 2 9.7-1.3 3.1-2 6.4-2 9.7 0 9.6 5.5 18.3 14.5 22.9 5.1 4.8 12.2 7.6 19.5 7.6 4.6 0 9.1-1.1 13.1-3.1 5.2 5.7 12.8 9.1 20.9 9.1 5 0 9.8-1.2 14-3.6 4.7 3.4 10.3 5.6 16.2 6.4 9.9 10 17.6 22.9 17.6 23l2.5 4.3 12.6-9-7-20.1c3.9-1.8 7.2-4.8 9.3-8.6 8.6-4.6 14.1-13.3 14.1-22.7 0-2.1-.3-4.2-.8-6.2 4.2-4.7 6.6-10.7 6.6-16.9zm-25.1 38.3-1.6.7-.7 1.6c-1.5 3.3-4.6 5.7-8.4 6.5l-5.1 1 6.7 19.1c-3.6-5.3-9.1-12.5-15.5-18.6l-1.2-1.1-1.6-.1c-3.9-.3-7.6-1.5-10.9-3.3l13-10.3c3.4-2.7 8-3.8 9.5-3.4l6 1.6 2.2-8.4-6-1.6c-5.2-1.4-12.7 1.5-17.1 5l-14.6 11.5-3 2.2c-3.3 2.5-7.2 3.8-11.4 3.8-6.1 0-11.8-2.9-15.1-7.5V79.6c0-3.5 1.6-6.8 2.6-7.4l4.9-3-4.7-7.7-5 3c-2.3 1.4-4.2 3.9-5.4 6.7-1-.9-2.1-1.8-3.3-2.5l-14.6-8.9-4.7 7.7 14.4 8.9c3.5 2.1 5.9 6.7 5.9 9.5v5.8c-3.3 1.6-6 2.5-9.5 2.5-5.2 0-10-2-13.5-5.5l-.5-.6-.7-.3c-6.2-2.9-10-8.7-10-15.1 0-2.6.7-5.2 1.9-7.5l1.2-2.2-1.2-2.2c-1.3-2.4-1.9-4.9-1.9-7.5 0-7.9 5.8-14.6 14.1-16.5l3-.7.5-3c1.4-8.3 9.1-14.3 18.3-14.3 1.5 0 3 .2 4.5.5l3.1.7 1.7-2.7c3.3-5.2 9.4-8.4 16-8.4 4.2 0 8.2 1.3 11.5 3.7l-3.4 3.1-.1-.1-2.4 2.2c-3.2 2.4-7.1 3.7-8.5 3.5l-6.4-1-1.3 8.9 6.4 1h.7c-1 3.2-1.4 6.7-.9 9.7l1.5 8.6 8.9-1.5-1.5-8.6c-.6-3.2 1.1-8.2 3.4-10.4l3.7-3.5c.5-.4 1-.8 1.4-1.2l7.1-6.6c3.9-1.6 7.9-2.4 12.2-2.4 14.8 0 27.3 9.8 29.8 23.2l.4 2.2 2 1c5.8 3 9.4 8.7 9.4 14.8 0 3.2-1 6.2-2.8 8.9l-1.4-1.4-5.9-5.9c-2.5-2.5-5.1-8.2-5.6-12l-1-8.8-8.7 1 1 8.8c.3 2.5 1.1 5.4 2.3 8.1-.6-.1-1.2-.1-1.7-.2l-19.6-.9-.4 8.7 19.6.9c4 .2 9.9 2.6 12.3 5l4.7 4.7.2.4c.7 1.8 1.1 3.8 1.1 5.8-.1 6.7-4 12.5-10.3 15.4z" fill="#7fc37e"/></svg>