<svg version="1.1" xmlns="http://www.w3.org/2000/svg" x="0" y="0" viewBox="0 0 697.4 139.1" xml:space="preserve"><style>.st0{fill:#333}.st1{fill:#7fc37e}</style><path id="r_x24_-0" class="st0" d="M516.1 9.2c2.5 0 4.5 3.1 4.5 7V123c0 3.9-2 7-4.5 7s-4.5-3.1-4.5-7V16.1c-.1-3.8 2-6.9 4.5-6.9z"/><path class="st0" d="M25.9 101.8c-7.6 0-13.9-1.9-18.7-5.6C2.4 92.4 0 86.6 0 78.7l.1-2.2h10.2l-.1 2.4c0 4.6 1.4 8 4.2 10.4 2.8 2.4 6.5 3.5 11.1 3.5 5.2 0 9.2-1.1 12-3.3 2.8-2.2 4.2-5.4 4.2-9.5 0-2.8-.8-5-2.3-6.8-1.5-1.8-3.5-3.2-5.7-4.2-2.3-1-5.4-2.2-9.4-3.5-4.9-1.6-8.8-3.2-11.8-4.7S6.9 57 4.8 54.1c-2.1-2.9-3.2-6.7-3.2-11.4 0-6.7 2.3-11.9 6.9-15.4 4.6-3.5 10.4-5.3 17.6-5.3 7.2 0 13 1.8 17.5 5.3 4.4 3.5 6.7 9 6.7 16.3v1.3H40v-1.7c0-3.8-1.3-6.8-3.9-9-2.6-2.2-5.9-3.3-9.8-3.3-4.3 0-7.7.9-10.3 2.7-2.6 1.8-3.9 4.5-3.9 8 0 2.6.7 4.8 2.2 6.4 1.5 1.7 3.4 3 5.6 4 2.2 1 5.3 2.2 9.2 3.4 4.9 1.6 8.9 3.2 12 4.7 3 1.5 5.6 3.6 7.8 6.5 2.1 2.9 3.2 6.6 3.2 11.2 0 8.2-2.3 14.2-7 18-4.8 4.1-11.1 6-19.2 6zm50.3 0c-4 0-7.6-1.2-10.8-3.6s-4.7-6.7-4.7-13c0-7.6 2.6-12.8 7.7-15.6 5.1-2.8 12.5-4.2 22.2-4.2v-7.6c0-3.1-.7-5.4-2-7.1-1.3-1.6-3.8-2.5-7.3-2.5-3.2 0-5.5.9-7 2.7-1.4 1.8-2.1 4-2.1 6.6v1.3H63c-.1-.4-.1-1.3-.1-2.5 0-5.2 1.7-9.3 5.2-12.1 3.4-2.8 8-4.3 13.8-4.3 5.9 0 10.4 1.4 13.4 4.3 3 2.8 4.5 6.9 4.5 12.2v33.1c0 1.3.3 2.2.9 2.9.6.7 1.3 1 2.2 1h3.6v6.4c-1.6.9-3.7 1.3-6.1 1.3-2.4 0-4.4-.7-6-2-1.6-1.3-2.7-3.1-3.3-5.3h-.6c-1.5 2.5-3.5 4.4-6 5.7-2.5 1.6-5.3 2.3-8.3 2.3zm2.1-8.2c2 0 4-.6 5.8-1.7 1.9-1.1 3.4-2.8 4.6-5 1.2-2.2 1.8-4.8 1.8-7.9v-5.4c-6.7 0-11.8.8-15.2 2.3-3.4 1.5-5.1 4.4-5.1 8.7 0 3.2.7 5.5 2 6.9 1.4 1.4 3.4 2.1 6.1 2.1zm36.5 6.9V41.4h7l1.2 6.9h.7c2.9-5.5 7.4-8.2 13.5-8.2 6.4 0 10.5 2.8 12.6 8.5 1.5-2.8 3.5-4.9 6.1-6.4 2.6-1.5 5.3-2.2 8.2-2.2 9.3 0 14 6 14 17.9v42.6h-9.2V58.6c0-3.8-.7-6.5-2-8s-3.2-2.3-5.6-2.3c-2.8 0-5.2 1.5-7.2 4.4-1.9 2.9-2.9 6.9-2.9 11.8v36.1H142v-42c0-3.8-.7-6.5-2-8s-3.2-2.3-5.6-2.3c-2.8 0-5.3 1.5-7.3 4.4-2 2.9-3 6.9-3 11.8v36.1h-9.3zm76.7 19.4V41.4h7l1.2 6.9h.6c1.4-2.7 3.3-4.7 5.5-6.1 2.2-1.4 4.7-2.1 7.4-2.1 5.8 0 10.4 2.5 13.5 7.6 3.2 5.1 4.8 12.9 4.8 23.4 0 10.2-1.6 17.9-4.9 23-3.3 5.2-7.5 7.8-12.8 7.8-2.8 0-5.4-.6-7.7-1.8-2.3-1.2-3.9-2.7-4.9-4.8h-.6v24.6h-9.1zm19.8-26.3c3.6 0 6.3-1.6 8-4.8 1.7-3.2 2.6-8.5 2.6-15.7v-4.3c0-7.3-.9-12.5-2.6-15.7-1.7-3.2-4.4-4.8-8-4.8-7 0-10.6 6.9-10.6 20.6v4.3c0 13.6 3.5 20.4 10.6 20.4zm30.3 6.9V19.2h9.2v81.2h-9.2zm41.9 1.3c-7.5 0-13.1-2.5-16.8-7.4-3.7-4.9-5.5-12.7-5.5-23.5 0-10.6 1.8-18.3 5.5-23.4s9.2-7.5 16.7-7.5c6.6 0 11.5 2.2 14.6 6.6 3.2 4.4 4.8 11.4 4.8 21.2v5.8h-32c.1 6.9 1.1 11.9 3.2 15.2 2.1 3.2 5.3 4.8 9.7 4.8 3 0 5.4-1.2 7.2-3.6 1.8-2.4 2.8-5.6 2.8-9.7h9.1c0 6.6-1.8 11.8-5.3 15.7-3.6 3.9-8.3 5.8-14 5.8zm-12.6-36.4h22.2c0-5.6-.8-9.9-2.5-12.8s-4.1-4.4-7.3-4.4c-4 0-6.9 1.4-8.9 4.2-1.9 2.8-3.1 7.2-3.5 13z"/><path class="st1" d="m328.3 100.5 24.5-77.1h12.7l24.5 77.1h-10.7L374 83.3h-30.6l-5.3 17.2h-9.8zm17.9-26.2h25L360.8 40c-.5-1.6-1.1-4.5-1.8-8.5h-.4c-.7 4.1-1.3 7-1.8 8.5l-10.6 34.3zm50.4 45.6V41.4h7l1.2 6.9h.6c1.4-2.7 3.3-4.7 5.5-6.1 2.2-1.4 4.7-2.1 7.4-2.1 5.8 0 10.3 2.5 13.5 7.6 3.2 5.1 4.8 12.9 4.8 23.4 0 10.2-1.6 17.9-4.9 23-3.2 5.2-7.5 7.8-12.7 7.8-2.8 0-5.4-.6-7.7-1.8-2.3-1.2-3.9-2.7-4.9-4.8h-.6v24.6h-9.2zm19.8-26.3c3.6 0 6.3-1.6 8-4.8 1.7-3.2 2.6-8.5 2.6-15.7v-4.3c0-7.3-.9-12.5-2.6-15.7-1.7-3.2-4.4-4.8-8-4.8-7 0-10.6 6.9-10.6 20.6v4.3c0 13.6 3.5 20.4 10.6 20.4zm31.4 26.3V41.4h7l1.2 6.9h.6c1.4-2.7 3.3-4.7 5.5-6.1 2.2-1.4 4.7-2.1 7.4-2.1 5.8 0 10.4 2.5 13.5 7.6 3.2 5.1 4.8 12.9 4.8 23.4 0 10.2-1.6 17.9-4.9 23-3.3 5.2-7.5 7.8-12.8 7.8-2.8 0-5.4-.6-7.7-1.8-2.3-1.2-3.9-2.7-4.9-4.8h-.5v24.6h-9.2zm19.8-26.3c3.6 0 6.3-1.6 8-4.8 1.7-3.2 2.6-8.5 2.6-15.7v-4.3c0-7.3-.9-12.5-2.6-15.7-1.7-3.2-4.4-4.8-8-4.8-7 0-10.6 6.9-10.6 20.6v4.3c0 13.6 3.5 20.4 10.6 20.4z"/><path class="st1" d="M256 55.7c0-8.8-4.7-16.9-12.4-21.7-4.1-16.7-19.8-28.5-38.2-28.5-4.4 0-8.8.7-12.9 2-5.1-4.8-12-7.6-19.4-7.6-8.5 0-16.6 3.8-21.8 10.1-1.1-.1-2.3-.2-3.5-.2-12.5 0-23.2 7.8-26.5 18.9-11 3.6-18.4 13.3-18.4 24.5 0 3.3.7 6.6 2 9.7-1.3 3.1-2 6.4-2 9.7 0 9.6 5.5 18.3 14.5 22.9 5.1 4.8 12.2 7.6 19.5 7.6 4.6 0 9.1-1.1 13.1-3.1 5.2 5.7 12.8 9.1 20.9 9.1 5 0 9.8-1.2 14-3.6 4.7 3.4 10.3 5.6 16.2 6.4 9.9 10 17.6 22.9 17.6 23l2.5 4.3 12.6-9-7-20.1c3.9-1.8 7.2-4.8 9.3-8.6 8.6-4.6 14.1-13.3 14.1-22.7 0-2.1-.3-4.2-.8-6.2 4.2-4.7 6.6-10.7 6.6-16.9zM230.9 94l-1.6.7-.7 1.6c-1.5 3.3-4.6 5.7-8.4 6.5l-5.1 1 6.7 19.1c-3.6-5.3-9.1-12.5-15.5-18.6l-1.2-1.1-1.6-.1c-3.9-.3-7.6-1.5-10.9-3.3l13-10.3c3.4-2.7 8-3.8 9.5-3.4l6 1.6 2.2-8.4-6-1.6c-5.2-1.4-12.7 1.5-17.1 5l-14.6 11.5-3 2.2c-3.3 2.5-7.2 3.8-11.4 3.8-6.1 0-11.8-2.9-15.1-7.5V79.6c0-3.5 1.6-6.8 2.6-7.4l4.9-3-4.7-7.7-5 3c-2.3 1.4-4.2 3.9-5.4 6.7-1-.9-2.1-1.8-3.3-2.5l-14.6-8.9-4.7 7.7 14.4 8.9c3.5 2.1 5.9 6.7 5.9 9.5v5.8c-3.3 1.6-6 2.5-9.5 2.5-5.2 0-10-2-13.5-5.5l-.5-.6-.7-.3c-6.2-2.9-10-8.7-10-15.1 0-2.6.7-5.2 1.9-7.5l1.2-2.2-1.2-2.2c-1.3-2.4-1.9-4.9-1.9-7.5 0-7.9 5.8-14.6 14.1-16.5l3-.7.5-3c1.4-8.3 9.1-14.3 18.3-14.3 1.5 0 3 .2 4.5.5l3.1.7 1.7-2.7c3.3-5.2 9.4-8.4 16-8.4 4.2 0 8.2 1.3 11.5 3.7l-3.4 3.1-.1-.1-2.4 2.2c-3.2 2.4-7.1 3.7-8.5 3.5l-6.4-1-1.3 8.9 6.4 1h.7c-1 3.2-1.4 6.7-.9 9.7l1.5 8.6 8.9-1.5-1.5-8.6c-.6-3.2 1.1-8.2 3.4-10.4l3.7-3.5c.5-.4 1-.8 1.4-1.2l7.1-6.6c3.9-1.6 7.9-2.4 12.2-2.4 14.8 0 27.3 9.8 29.8 23.2l.4 2.2 2 1c5.8 3 9.4 8.7 9.4 14.8 0 3.2-1 6.2-2.8 8.9l-1.4-1.4-5.9-5.9c-2.5-2.5-5.1-8.2-5.6-12l-1-8.8-8.7 1 1 8.8c.3 2.5 1.1 5.4 2.3 8.1-.6-.1-1.2-.1-1.7-.2l-19.6-.9-.4 8.7 19.6.9c4 .2 9.9 2.6 12.3 5l4.7 4.7.1.6c.7 1.8 1.1 3.8 1.1 5.8 0 6.5-3.9 12.3-10.2 15.2z" transform="translate(441.427)"/></svg>